G75*
%MOIN*%
%OFA0B0*%
%FSLAX25Y25*%
%IPPOS*%
%LPD*%
%AMOC8*
5,1,8,0,0,1.08239X$1,22.5*
%
%ADD10C,0.00000*%
%ADD11R,0.06500X0.06500*%
%ADD12C,0.06500*%
%ADD13C,0.08000*%
%ADD14C,0.04800*%
%ADD15C,0.07400*%
%ADD16C,0.06400*%
%ADD17R,0.07400X0.07400*%
%ADD18C,0.04500*%
%ADD19C,0.01000*%
%ADD20C,0.02000*%
D10*
X0001000Y0001000D02*
X0001000Y0185961D01*
X0179701Y0185961D01*
X0179701Y0001000D01*
X0001000Y0001000D01*
D11*
X0151079Y0091000D03*
X0093579Y0161000D03*
D12*
X0103421Y0161000D03*
X0160921Y0091000D03*
D13*
X0031500Y0116000D03*
X0020500Y0116000D03*
D14*
X0046100Y0116000D02*
X0050900Y0116000D01*
X0050900Y0126000D02*
X0046100Y0126000D01*
X0046100Y0136000D02*
X0050900Y0136000D01*
X0050900Y0146000D02*
X0046100Y0146000D01*
X0046100Y0156000D02*
X0050900Y0156000D01*
X0050900Y0166000D02*
X0046100Y0166000D01*
X0076100Y0166000D02*
X0080900Y0166000D01*
X0080900Y0156000D02*
X0076100Y0156000D01*
X0076100Y0146000D02*
X0080900Y0146000D01*
X0080900Y0136000D02*
X0076100Y0136000D01*
X0076100Y0126000D02*
X0080900Y0126000D01*
X0080900Y0116000D02*
X0076100Y0116000D01*
X0076100Y0106000D02*
X0080900Y0106000D01*
X0080900Y0096000D02*
X0076100Y0096000D01*
X0050900Y0096000D02*
X0046100Y0096000D01*
X0046100Y0106000D02*
X0050900Y0106000D01*
D15*
X0031000Y0101000D03*
X0021000Y0101000D03*
X0018200Y0069900D03*
X0018200Y0052100D03*
X0018200Y0034900D03*
X0018200Y0017100D03*
X0043800Y0017100D03*
X0060626Y0021000D03*
X0061000Y0036000D03*
X0043800Y0034900D03*
X0043800Y0052100D03*
X0060626Y0056000D03*
X0061000Y0071000D03*
X0043800Y0069900D03*
X0076374Y0056000D03*
X0091000Y0071000D03*
X0091000Y0036000D03*
X0088126Y0021000D03*
X0076374Y0021000D03*
X0103874Y0021000D03*
X0141000Y0016000D03*
X0151000Y0016000D03*
X0146000Y0040941D03*
X0156000Y0040941D03*
X0138500Y0133500D03*
X0138500Y0143500D03*
X0128500Y0143500D03*
X0128500Y0133500D03*
X0103500Y0141000D03*
X0093500Y0141000D03*
X0031000Y0151000D03*
X0021000Y0151000D03*
X0021000Y0166000D03*
X0031000Y0166000D03*
D16*
X0106000Y0108500D03*
X0106000Y0098500D03*
X0106000Y0088500D03*
X0106000Y0078500D03*
X0136000Y0078500D03*
X0136000Y0088500D03*
X0136000Y0098500D03*
X0136000Y0108500D03*
D17*
X0136000Y0040941D03*
D18*
X0148500Y0136250D02*
X0148500Y0140750D01*
X0153500Y0140750D02*
X0153500Y0136250D01*
X0158500Y0136250D02*
X0158500Y0140750D01*
X0163500Y0140750D02*
X0163500Y0136250D01*
D19*
X0163500Y0138500D02*
X0163500Y0141500D01*
X0156000Y0149000D01*
X0134000Y0149000D01*
X0128500Y0143500D01*
X0138500Y0143500D02*
X0143500Y0138500D01*
X0148500Y0138500D01*
X0103500Y0141000D02*
X0088500Y0156000D01*
X0093500Y0161000D01*
X0093579Y0161000D01*
X0088500Y0156000D02*
X0078500Y0146000D01*
X0072000Y0139500D01*
X0072000Y0134500D01*
X0078500Y0128000D01*
X0078500Y0126000D01*
X0078500Y0116000D02*
X0078500Y0106000D01*
X0078500Y0098000D02*
X0093500Y0113000D01*
X0093500Y0141000D01*
X0078500Y0154000D02*
X0078500Y0156000D01*
X0078500Y0154000D02*
X0070000Y0145500D01*
X0070000Y0096500D01*
X0090000Y0076500D01*
X0093000Y0076500D01*
X0096500Y0073000D01*
X0096500Y0041500D01*
X0091000Y0036000D01*
X0084000Y0036000D01*
X0069000Y0021000D01*
X0060626Y0021000D01*
X0061000Y0036000D02*
X0056500Y0040500D01*
X0042000Y0040500D01*
X0036500Y0035000D01*
X0018500Y0035000D01*
X0018200Y0034900D01*
X0018200Y0069900D02*
X0018500Y0070000D01*
X0036500Y0070000D01*
X0042000Y0075500D01*
X0056500Y0075500D01*
X0061000Y0071000D01*
X0076500Y0057000D02*
X0076500Y0056000D01*
X0076374Y0056000D01*
X0076500Y0057000D02*
X0090500Y0071000D01*
X0091000Y0071000D01*
X0068000Y0094000D01*
X0068000Y0134500D01*
X0048500Y0154000D01*
X0048500Y0156000D01*
X0048500Y0146000D02*
X0048500Y0136000D01*
X0048500Y0134000D01*
X0031500Y0117000D01*
X0031500Y0116000D01*
X0021000Y0105500D01*
X0021000Y0101000D01*
X0031000Y0101000D02*
X0036000Y0106000D01*
X0048500Y0106000D01*
X0048500Y0116000D02*
X0048500Y0126000D01*
X0078500Y0098000D02*
X0078500Y0096000D01*
X0103500Y0071000D01*
X0103500Y0021000D01*
X0103874Y0021000D01*
X0088126Y0021000D02*
X0076374Y0021000D01*
X0136000Y0040941D02*
X0136000Y0057000D01*
X0106000Y0087000D01*
X0106000Y0088500D01*
X0136000Y0078500D02*
X0138500Y0078500D01*
X0151000Y0091000D01*
X0151079Y0091000D01*
X0156000Y0040941D02*
X0156000Y0040500D01*
X0151000Y0035500D01*
X0151000Y0016000D01*
D20*
X0146000Y0040941D02*
X0146000Y0058500D01*
X0106000Y0098500D01*
X0126000Y0126500D02*
X0131500Y0126500D01*
X0138500Y0133500D01*
X0142500Y0129500D01*
X0142500Y0096000D01*
X0136000Y0089500D01*
X0136000Y0088500D01*
X0126000Y0126500D02*
X0121500Y0131000D01*
X0121500Y0152000D01*
X0102000Y0171500D01*
X0073500Y0171500D01*
X0068500Y0166500D01*
X0049000Y0166500D01*
X0048500Y0166000D01*
X0040500Y0166000D01*
X0033500Y0173000D01*
X0028000Y0173000D01*
X0021000Y0166000D01*
X0031000Y0166000D02*
X0021000Y0156000D01*
X0021000Y0151000D01*
M02*
