%
M48
M72
T01C0.02756
T02C0.03000
T03C0.03200
T04C0.03543
T05C0.04000
%
T01
X151079Y91000
X160921Y91000
X103421Y161000
X93579Y161000
T02
X148500Y138500
X153500Y138500
X158500Y138500
X163500Y138500
T03
X136000Y108500
X136000Y98500
X136000Y88500
X136000Y78500
X106000Y78500
X106000Y88500
X106000Y98500
X106000Y108500
X78500Y106000
X78500Y96000
X78500Y116000
X78500Y126000
X78500Y136000
X78500Y146000
X78500Y156000
X78500Y166000
X48500Y166000
X48500Y156000
X48500Y146000
X48500Y136000
X48500Y126000
X48500Y116000
X48500Y106000
X48500Y96000
T04
X31000Y101000
X21000Y101000
X61000Y71000
X60626Y56000
X76374Y56000
X91000Y71000
X91000Y36000
X88126Y21000
X76374Y21000
X60626Y21000
X61000Y36000
X103874Y21000
X141000Y16000
X151000Y16000
X138500Y133500
X138500Y143500
X128500Y143500
X128500Y133500
X103500Y141000
X93500Y141000
T05
X18200Y17100
X18200Y34900
X18200Y52100
X18200Y69900
X43800Y69900
X43800Y52100
X43800Y34900
X43800Y17100
X136000Y40941
X146000Y40941
X156000Y40941
X31500Y116000
X20500Y116000
X21000Y151000
X31000Y151000
X31000Y166000
X21000Y166000
M30
