G75*
%MOIN*%
%OFA0B0*%
%FSLAX25Y25*%
%IPPOS*%
%LPD*%
%AMOC8*
5,1,8,0,0,1.08239X$1,22.5*
%
%ADD10R,0.06500X0.06500*%
%ADD11C,0.06500*%
%ADD12C,0.08000*%
%ADD13C,0.04800*%
%ADD14C,0.07400*%
%ADD15C,0.06400*%
%ADD16R,0.07400X0.07400*%
%ADD17C,0.04500*%
%ADD18C,0.01000*%
%ADD19C,0.02000*%
D10*
X0151079Y0091000D03*
X0093579Y0161000D03*
D11*
X0103421Y0161000D03*
X0160921Y0091000D03*
D12*
X0031500Y0116000D03*
X0020500Y0116000D03*
D13*
X0046100Y0116000D02*
X0050900Y0116000D01*
X0050900Y0126000D02*
X0046100Y0126000D01*
X0046100Y0136000D02*
X0050900Y0136000D01*
X0050900Y0146000D02*
X0046100Y0146000D01*
X0046100Y0156000D02*
X0050900Y0156000D01*
X0050900Y0166000D02*
X0046100Y0166000D01*
X0076100Y0166000D02*
X0080900Y0166000D01*
X0080900Y0156000D02*
X0076100Y0156000D01*
X0076100Y0146000D02*
X0080900Y0146000D01*
X0080900Y0136000D02*
X0076100Y0136000D01*
X0076100Y0126000D02*
X0080900Y0126000D01*
X0080900Y0116000D02*
X0076100Y0116000D01*
X0076100Y0106000D02*
X0080900Y0106000D01*
X0080900Y0096000D02*
X0076100Y0096000D01*
X0050900Y0096000D02*
X0046100Y0096000D01*
X0046100Y0106000D02*
X0050900Y0106000D01*
D14*
X0018200Y0017100D03*
X0018200Y0034900D03*
X0018200Y0052100D03*
X0018200Y0069900D03*
X0043800Y0069900D03*
X0061000Y0071000D03*
X0060626Y0056000D03*
X0076374Y0056000D03*
X0091000Y0071000D03*
X0091000Y0036000D03*
X0088126Y0021000D03*
X0076374Y0021000D03*
X0060626Y0021000D03*
X0061000Y0036000D03*
X0043800Y0034900D03*
X0043800Y0052100D03*
X0043800Y0017100D03*
X0103874Y0021000D03*
X0141000Y0016000D03*
X0151000Y0016000D03*
X0146000Y0040941D03*
X0156000Y0040941D03*
X0138500Y0133500D03*
X0138500Y0143500D03*
X0128500Y0143500D03*
X0128500Y0133500D03*
X0103500Y0141000D03*
X0093500Y0141000D03*
X0031000Y0151000D03*
X0021000Y0151000D03*
X0021000Y0166000D03*
X0031000Y0166000D03*
X0031000Y0101000D03*
X0021000Y0101000D03*
D15*
X0106000Y0098500D03*
X0106000Y0088500D03*
X0106000Y0078500D03*
X0106000Y0108500D03*
X0136000Y0108500D03*
X0136000Y0098500D03*
X0136000Y0088500D03*
X0136000Y0078500D03*
D16*
X0136000Y0040941D03*
D17*
X0148500Y0136250D02*
X0148500Y0140750D01*
X0153500Y0140750D02*
X0153500Y0136250D01*
X0158500Y0136250D02*
X0158500Y0140750D01*
X0163500Y0140750D02*
X0163500Y0136250D01*
D18*
X0167500Y0134500D02*
X0167500Y0142500D01*
X0161000Y0149000D01*
X0119000Y0149000D01*
X0105500Y0135500D01*
X0087000Y0135500D01*
X0080500Y0142000D01*
X0040000Y0142000D01*
X0031000Y0151000D01*
X0020500Y0116000D02*
X0020500Y0111500D01*
X0031000Y0101000D01*
X0031000Y0093500D01*
X0060500Y0064000D01*
X0060500Y0056000D01*
X0060626Y0056000D01*
X0023500Y0047000D02*
X0023500Y0041500D01*
X0128500Y0041500D01*
X0128500Y0038500D01*
X0141000Y0026000D01*
X0141000Y0016000D01*
X0128500Y0041500D02*
X0128500Y0133500D01*
X0103000Y0150500D02*
X0093500Y0141000D01*
X0103000Y0150500D02*
X0103000Y0161000D01*
X0103421Y0161000D01*
X0161000Y0128000D02*
X0167500Y0134500D01*
X0161000Y0128000D02*
X0161000Y0091000D01*
X0160921Y0091000D01*
X0023500Y0047000D02*
X0018500Y0052000D01*
X0018200Y0052100D01*
X0023500Y0041500D02*
X0023500Y0032500D01*
X0018500Y0027500D01*
X0018500Y0017500D01*
X0018200Y0017100D01*
D19*
X0073500Y0090500D02*
X0098000Y0090500D01*
X0098500Y0090000D01*
X0098500Y0087000D01*
X0106000Y0079500D01*
X0106000Y0078500D01*
X0098000Y0090500D02*
X0106000Y0098500D01*
X0073500Y0090500D02*
X0068000Y0096000D01*
X0048500Y0096000D01*
X0048000Y0096000D01*
X0040500Y0103500D01*
X0040500Y0117000D01*
X0021000Y0136500D01*
X0021000Y0151000D01*
M02*
