G75*
%MOIN*%
%OFA0B0*%
%FSLAX25Y25*%
%IPPOS*%
%LPD*%
%AMOC8*
5,1,8,0,0,1.08239X$1,22.5*
%
%ADD10R,0.07100X0.07100*%
%ADD11C,0.07100*%
%ADD12C,0.00500*%
%ADD13C,0.05400*%
%ADD14C,0.08000*%
%ADD15C,0.07000*%
%ADD16R,0.08000X0.08000*%
%ADD17C,0.05100*%
D10*
X0151079Y0091000D03*
X0093579Y0161000D03*
D11*
X0103421Y0161000D03*
X0160921Y0091000D03*
D12*
X0105960Y0024152D02*
X0105314Y0024487D01*
X0104615Y0024688D01*
X0103890Y0024750D01*
X0103169Y0024687D01*
X0102475Y0024485D01*
X0101833Y0024151D01*
X0101269Y0023698D01*
X0100804Y0023144D01*
X0100456Y0022509D01*
X0100238Y0021819D01*
X0100160Y0021100D01*
X0100208Y0020440D01*
X0100370Y0019799D01*
X0100641Y0019195D01*
X0101012Y0018648D01*
X0101473Y0018173D01*
X0102010Y0017786D01*
X0102605Y0017497D01*
X0103242Y0017317D01*
X0103900Y0017250D01*
X0104558Y0017315D01*
X0105195Y0017494D01*
X0105791Y0017781D01*
X0106329Y0018166D01*
X0106791Y0018640D01*
X0107164Y0019186D01*
X0107436Y0019789D01*
X0107600Y0020430D01*
X0107650Y0021090D01*
X0107569Y0021813D01*
X0107348Y0022506D01*
X0106997Y0023142D01*
X0106528Y0023698D01*
X0105960Y0024152D01*
X0106236Y0023932D02*
X0101560Y0023932D01*
X0101047Y0023433D02*
X0106752Y0023433D01*
X0107112Y0022934D02*
X0100689Y0022934D01*
X0100433Y0022436D02*
X0107370Y0022436D01*
X0107529Y0021937D02*
X0100276Y0021937D01*
X0100197Y0021439D02*
X0107610Y0021439D01*
X0107638Y0020940D02*
X0100171Y0020940D01*
X0100208Y0020442D02*
X0107601Y0020442D01*
X0107476Y0019943D02*
X0100333Y0019943D01*
X0100529Y0019445D02*
X0107281Y0019445D01*
X0107000Y0018946D02*
X0100809Y0018946D01*
X0101206Y0018448D02*
X0106604Y0018448D01*
X0106027Y0017949D02*
X0101783Y0017949D01*
X0102769Y0017451D02*
X0105042Y0017451D01*
X0105423Y0024430D02*
X0102370Y0024430D01*
X0091769Y0021813D02*
X0091850Y0021090D01*
X0091800Y0020430D01*
X0091636Y0019789D01*
X0091364Y0019186D01*
X0090991Y0018640D01*
X0090529Y0018166D01*
X0089991Y0017781D01*
X0089395Y0017494D01*
X0088758Y0017315D01*
X0088100Y0017250D01*
X0087442Y0017317D01*
X0086805Y0017497D01*
X0086210Y0017786D01*
X0085673Y0018173D01*
X0085212Y0018648D01*
X0084841Y0019195D01*
X0084570Y0019799D01*
X0084408Y0020440D01*
X0084360Y0021100D01*
X0084438Y0021819D01*
X0084656Y0022509D01*
X0085004Y0023144D01*
X0085469Y0023698D01*
X0086033Y0024151D01*
X0086675Y0024485D01*
X0087369Y0024687D01*
X0088090Y0024750D01*
X0088815Y0024688D01*
X0089514Y0024487D01*
X0090160Y0024152D01*
X0090728Y0023698D01*
X0091197Y0023142D01*
X0091548Y0022506D01*
X0091769Y0021813D01*
X0091729Y0021937D02*
X0084476Y0021937D01*
X0084397Y0021439D02*
X0091810Y0021439D01*
X0091838Y0020940D02*
X0084371Y0020940D01*
X0084408Y0020442D02*
X0091801Y0020442D01*
X0091676Y0019943D02*
X0084533Y0019943D01*
X0084729Y0019445D02*
X0091481Y0019445D01*
X0091200Y0018946D02*
X0085009Y0018946D01*
X0085406Y0018448D02*
X0090804Y0018448D01*
X0090227Y0017949D02*
X0085983Y0017949D01*
X0086969Y0017451D02*
X0089242Y0017451D01*
X0091570Y0022436D02*
X0084633Y0022436D01*
X0084889Y0022934D02*
X0091312Y0022934D01*
X0090952Y0023433D02*
X0085247Y0023433D01*
X0085760Y0023932D02*
X0090436Y0023932D01*
X0089623Y0024430D02*
X0086570Y0024430D01*
X0079870Y0022436D02*
X0072933Y0022436D01*
X0072956Y0022509D02*
X0073304Y0023144D01*
X0073769Y0023698D01*
X0074333Y0024151D01*
X0074975Y0024485D01*
X0075669Y0024687D01*
X0076390Y0024750D01*
X0077115Y0024688D01*
X0077814Y0024487D01*
X0078460Y0024152D01*
X0079028Y0023698D01*
X0079497Y0023142D01*
X0079848Y0022506D01*
X0080069Y0021813D01*
X0080150Y0021090D01*
X0080100Y0020430D01*
X0079936Y0019789D01*
X0079664Y0019186D01*
X0079291Y0018640D01*
X0078829Y0018166D01*
X0078291Y0017781D01*
X0077695Y0017494D01*
X0077058Y0017315D01*
X0076400Y0017250D01*
X0075742Y0017317D01*
X0075105Y0017497D01*
X0074510Y0017786D01*
X0073973Y0018173D01*
X0073512Y0018648D01*
X0073141Y0019195D01*
X0072870Y0019799D01*
X0072708Y0020440D01*
X0072660Y0021100D01*
X0072738Y0021819D01*
X0072956Y0022509D01*
X0073189Y0022934D02*
X0079612Y0022934D01*
X0079252Y0023433D02*
X0073547Y0023433D01*
X0074060Y0023932D02*
X0078736Y0023932D01*
X0077923Y0024430D02*
X0074870Y0024430D01*
X0072776Y0021937D02*
X0080029Y0021937D01*
X0080110Y0021439D02*
X0072697Y0021439D01*
X0072671Y0020940D02*
X0080138Y0020940D01*
X0080101Y0020442D02*
X0072708Y0020442D01*
X0072833Y0019943D02*
X0079976Y0019943D01*
X0079781Y0019445D02*
X0073029Y0019445D01*
X0073309Y0018946D02*
X0079500Y0018946D01*
X0079104Y0018448D02*
X0073706Y0018448D01*
X0074283Y0017949D02*
X0078527Y0017949D01*
X0077542Y0017451D02*
X0075269Y0017451D01*
X0064300Y0020430D02*
X0064136Y0019789D01*
X0063864Y0019186D01*
X0063491Y0018640D01*
X0063029Y0018166D01*
X0062491Y0017781D01*
X0061895Y0017494D01*
X0061258Y0017315D01*
X0060600Y0017250D01*
X0059942Y0017317D01*
X0059305Y0017497D01*
X0058710Y0017786D01*
X0058173Y0018173D01*
X0057712Y0018648D01*
X0057341Y0019195D01*
X0057070Y0019799D01*
X0056908Y0020440D01*
X0056860Y0021100D01*
X0056938Y0021819D01*
X0057156Y0022509D01*
X0057504Y0023144D01*
X0057969Y0023698D01*
X0058533Y0024151D01*
X0059175Y0024485D01*
X0059869Y0024687D01*
X0060590Y0024750D01*
X0061315Y0024688D01*
X0062014Y0024487D01*
X0062660Y0024152D01*
X0063228Y0023698D01*
X0063697Y0023142D01*
X0064048Y0022506D01*
X0064269Y0021813D01*
X0064350Y0021090D01*
X0064300Y0020430D01*
X0064301Y0020442D02*
X0056908Y0020442D01*
X0056871Y0020940D02*
X0064338Y0020940D01*
X0064310Y0021439D02*
X0056897Y0021439D01*
X0056976Y0021937D02*
X0064229Y0021937D01*
X0064070Y0022436D02*
X0057133Y0022436D01*
X0057389Y0022934D02*
X0063812Y0022934D01*
X0063452Y0023433D02*
X0057747Y0023433D01*
X0058260Y0023932D02*
X0062936Y0023932D01*
X0062123Y0024430D02*
X0059070Y0024430D01*
X0057033Y0019943D02*
X0064176Y0019943D01*
X0063981Y0019445D02*
X0057229Y0019445D01*
X0057509Y0018946D02*
X0063700Y0018946D01*
X0063304Y0018448D02*
X0057906Y0018448D01*
X0058483Y0017949D02*
X0062727Y0017949D01*
X0061742Y0017451D02*
X0059469Y0017451D01*
X0060610Y0052250D02*
X0061331Y0052313D01*
X0062025Y0052515D01*
X0062667Y0052849D01*
X0063231Y0053302D01*
X0063696Y0053856D01*
X0064044Y0054491D01*
X0064262Y0055181D01*
X0064340Y0055900D01*
X0064292Y0056560D01*
X0064130Y0057201D01*
X0063859Y0057805D01*
X0063488Y0058352D01*
X0063027Y0058827D01*
X0062490Y0059214D01*
X0061895Y0059503D01*
X0061258Y0059683D01*
X0060600Y0059750D01*
X0059942Y0059685D01*
X0059305Y0059506D01*
X0058709Y0059219D01*
X0058171Y0058834D01*
X0057709Y0058360D01*
X0057336Y0057814D01*
X0057064Y0057211D01*
X0056900Y0056570D01*
X0056850Y0055910D01*
X0056931Y0055187D01*
X0057152Y0054494D01*
X0057503Y0053858D01*
X0057972Y0053302D01*
X0058540Y0052848D01*
X0059186Y0052513D01*
X0059885Y0052312D01*
X0060610Y0052250D01*
X0061446Y0052347D02*
X0059764Y0052347D01*
X0058545Y0052845D02*
X0062659Y0052845D01*
X0063266Y0053344D02*
X0057937Y0053344D01*
X0057516Y0053842D02*
X0063684Y0053842D01*
X0063962Y0054341D02*
X0057237Y0054341D01*
X0057042Y0054839D02*
X0064154Y0054839D01*
X0064279Y0055338D02*
X0056915Y0055338D01*
X0056859Y0055836D02*
X0064333Y0055836D01*
X0064308Y0056335D02*
X0056882Y0056335D01*
X0056967Y0056833D02*
X0064223Y0056833D01*
X0064072Y0057332D02*
X0057118Y0057332D01*
X0057347Y0057830D02*
X0063842Y0057830D01*
X0063504Y0058329D02*
X0057688Y0058329D01*
X0058165Y0058827D02*
X0063026Y0058827D01*
X0062260Y0059326D02*
X0058930Y0059326D01*
X0072700Y0056570D02*
X0072650Y0055910D01*
X0072731Y0055187D01*
X0072952Y0054494D01*
X0073303Y0053858D01*
X0073772Y0053302D01*
X0074340Y0052848D01*
X0074986Y0052513D01*
X0075685Y0052312D01*
X0076410Y0052250D01*
X0077131Y0052313D01*
X0077825Y0052515D01*
X0078467Y0052849D01*
X0079031Y0053302D01*
X0079496Y0053856D01*
X0079844Y0054491D01*
X0080062Y0055181D01*
X0080140Y0055900D01*
X0080092Y0056560D01*
X0079930Y0057201D01*
X0079659Y0057805D01*
X0079288Y0058352D01*
X0078827Y0058827D01*
X0078290Y0059214D01*
X0077695Y0059503D01*
X0077058Y0059683D01*
X0076400Y0059750D01*
X0075742Y0059685D01*
X0075105Y0059506D01*
X0074509Y0059219D01*
X0073971Y0058834D01*
X0073509Y0058360D01*
X0073136Y0057814D01*
X0072864Y0057211D01*
X0072700Y0056570D01*
X0072682Y0056335D02*
X0080108Y0056335D01*
X0080133Y0055836D02*
X0072659Y0055836D01*
X0072715Y0055338D02*
X0080079Y0055338D01*
X0079954Y0054839D02*
X0072842Y0054839D01*
X0073037Y0054341D02*
X0079762Y0054341D01*
X0079484Y0053842D02*
X0073316Y0053842D01*
X0073737Y0053344D02*
X0079066Y0053344D01*
X0078459Y0052845D02*
X0074345Y0052845D01*
X0075564Y0052347D02*
X0077246Y0052347D01*
X0080023Y0056833D02*
X0072767Y0056833D01*
X0072918Y0057332D02*
X0079872Y0057332D01*
X0079642Y0057830D02*
X0073147Y0057830D01*
X0073488Y0058329D02*
X0079304Y0058329D01*
X0078826Y0058827D02*
X0073965Y0058827D01*
X0074730Y0059326D02*
X0078060Y0059326D01*
X0034121Y0113322D02*
X0033557Y0112869D01*
X0032915Y0112535D01*
X0032221Y0112333D01*
X0031500Y0112270D01*
X0030775Y0112331D01*
X0030077Y0112533D01*
X0029431Y0112867D01*
X0028862Y0113321D01*
X0028393Y0113877D01*
X0028042Y0114514D01*
X0027822Y0115207D01*
X0027741Y0115930D01*
X0027790Y0116590D01*
X0027954Y0117231D01*
X0028226Y0117834D01*
X0028599Y0118380D01*
X0029061Y0118853D01*
X0029599Y0119239D01*
X0030195Y0119526D01*
X0030832Y0119705D01*
X0031490Y0119770D01*
X0032148Y0119703D01*
X0032785Y0119522D01*
X0033380Y0119234D01*
X0033917Y0118847D01*
X0034378Y0118372D01*
X0034749Y0117825D01*
X0035020Y0117221D01*
X0035182Y0116580D01*
X0035230Y0115920D01*
X0035152Y0115200D01*
X0034934Y0114510D01*
X0034586Y0113876D01*
X0034121Y0113322D01*
X0033926Y0113165D02*
X0029058Y0113165D01*
X0028574Y0113664D02*
X0034408Y0113664D01*
X0034743Y0114162D02*
X0028236Y0114162D01*
X0027995Y0114661D02*
X0034982Y0114661D01*
X0035139Y0115159D02*
X0027837Y0115159D01*
X0027771Y0115658D02*
X0035202Y0115658D01*
X0035213Y0116156D02*
X0027758Y0116156D01*
X0027807Y0116655D02*
X0035163Y0116655D01*
X0035037Y0117153D02*
X0027934Y0117153D01*
X0028144Y0117652D02*
X0034827Y0117652D01*
X0034528Y0118150D02*
X0028442Y0118150D01*
X0028862Y0118649D02*
X0034109Y0118649D01*
X0033501Y0119147D02*
X0029471Y0119147D01*
X0030622Y0119646D02*
X0032350Y0119646D01*
X0033168Y0112667D02*
X0029819Y0112667D01*
X0023914Y0114510D02*
X0023566Y0113876D01*
X0023101Y0113322D01*
X0022537Y0112869D01*
X0021895Y0112535D01*
X0021201Y0112333D01*
X0020480Y0112270D01*
X0019755Y0112331D01*
X0019056Y0112533D01*
X0018410Y0112867D01*
X0017842Y0113321D01*
X0017373Y0113877D01*
X0017022Y0114514D01*
X0016801Y0115207D01*
X0016720Y0115930D01*
X0016770Y0116590D01*
X0016934Y0117231D01*
X0017206Y0117834D01*
X0017579Y0118380D01*
X0018041Y0118853D01*
X0018579Y0119239D01*
X0019175Y0119526D01*
X0019812Y0119705D01*
X0020470Y0119770D01*
X0021128Y0119703D01*
X0021765Y0119522D01*
X0022360Y0119234D01*
X0022897Y0118847D01*
X0023358Y0118372D01*
X0023729Y0117825D01*
X0024000Y0117221D01*
X0024162Y0116580D01*
X0024210Y0115920D01*
X0024132Y0115200D01*
X0023914Y0114510D01*
X0023961Y0114661D02*
X0016975Y0114661D01*
X0016817Y0115159D02*
X0024119Y0115159D01*
X0024182Y0115658D02*
X0016751Y0115658D01*
X0016738Y0116156D02*
X0024193Y0116156D01*
X0024143Y0116655D02*
X0016787Y0116655D01*
X0016914Y0117153D02*
X0024017Y0117153D01*
X0023807Y0117652D02*
X0017124Y0117652D01*
X0017422Y0118150D02*
X0023508Y0118150D01*
X0023089Y0118649D02*
X0017841Y0118649D01*
X0018451Y0119147D02*
X0022481Y0119147D01*
X0021330Y0119646D02*
X0019602Y0119646D01*
X0017216Y0114162D02*
X0023723Y0114162D01*
X0023388Y0113664D02*
X0017553Y0113664D01*
X0018038Y0113165D02*
X0022906Y0113165D01*
X0022148Y0112667D02*
X0018799Y0112667D01*
D13*
X0046100Y0116000D02*
X0050900Y0116000D01*
X0050900Y0126000D02*
X0046100Y0126000D01*
X0046100Y0136000D02*
X0050900Y0136000D01*
X0050900Y0146000D02*
X0046100Y0146000D01*
X0046100Y0156000D02*
X0050900Y0156000D01*
X0050900Y0166000D02*
X0046100Y0166000D01*
X0076100Y0166000D02*
X0080900Y0166000D01*
X0080900Y0156000D02*
X0076100Y0156000D01*
X0076100Y0146000D02*
X0080900Y0146000D01*
X0080900Y0136000D02*
X0076100Y0136000D01*
X0076100Y0126000D02*
X0080900Y0126000D01*
X0080900Y0116000D02*
X0076100Y0116000D01*
X0076100Y0106000D02*
X0080900Y0106000D01*
X0080900Y0096000D02*
X0076100Y0096000D01*
X0050900Y0096000D02*
X0046100Y0096000D01*
X0046100Y0106000D02*
X0050900Y0106000D01*
D14*
X0018200Y0017100D03*
X0018200Y0034900D03*
X0018200Y0052100D03*
X0018200Y0069900D03*
X0043800Y0069900D03*
X0061000Y0071000D03*
X0043800Y0052100D03*
X0043800Y0034900D03*
X0061000Y0036000D03*
X0043800Y0017100D03*
X0091000Y0036000D03*
X0091000Y0071000D03*
X0141000Y0016000D03*
X0151000Y0016000D03*
X0146000Y0040941D03*
X0156000Y0040941D03*
X0138500Y0133500D03*
X0138500Y0143500D03*
X0128500Y0143500D03*
X0128500Y0133500D03*
X0103500Y0141000D03*
X0093500Y0141000D03*
X0031000Y0151000D03*
X0021000Y0151000D03*
X0021000Y0166000D03*
X0031000Y0166000D03*
X0031000Y0101000D03*
X0021000Y0101000D03*
D15*
X0106000Y0098500D03*
X0106000Y0088500D03*
X0106000Y0078500D03*
X0106000Y0108500D03*
X0136000Y0108500D03*
X0136000Y0098500D03*
X0136000Y0088500D03*
X0136000Y0078500D03*
D16*
X0136000Y0040941D03*
D17*
X0148500Y0136250D02*
X0148500Y0140750D01*
X0153500Y0140750D02*
X0153500Y0136250D01*
X0158500Y0136250D02*
X0158500Y0140750D01*
X0163500Y0140750D02*
X0163500Y0136250D01*
M02*
